<?xml version="1.0" encoding="UTF-8" standalone="no"?>
<!DOCTYPE svg PUBLIC "-//W3C//DTD SVG 1.1//EN" "http://www.w3.org/Graphics/SVG/1.1/DTD/svg11.dtd">
<svg width="100%" height="100%" viewBox="0 0 1000 1000" version="1.1" xmlns="http://www.w3.org/2000/svg" xmlns:xlink="http://www.w3.org/1999/xlink" xml:space="preserve" xmlns:serif="http://www.serif.com/" style="fill-rule:evenodd;clip-rule:evenodd;stroke-linejoin:round;stroke-miterlimit:2;">
    <style>
        path { fill: #000; }
        @media (prefers-color-scheme: dark) {
            path { fill: #fff; }
        }
    </style>
    <g transform="matrix(1,0,0,1,0,-3150)">
        <g id="Logo">
            <rect id="logo-black-transparent" serif:id="logo black transparent" x="0" y="3150" width="1000" height="1000" style="fill:none;"/>
            <g id="logo-black-transparent1" serif:id="logo black transparent">
                <g transform="matrix(1.778526,0,0,1.778526,-288.004421,2770.619432)">
                    <path d="M222.856,342.1L476.098,342.1C445.276,358.663 428.29,369.591 406.039,400.578L290.827,400.549L290.827,468.986L389.526,468.986C391.423,456.115 394.813,443.85 399.697,432.19C407.681,413.129 418.902,396.55 433.359,382.452C447.817,368.354 464.72,357.313 484.068,349.329C503.417,341.345 524.456,337.353 547.185,337.353C571.353,337.353 592.859,341.237 611.704,349.005C630.549,356.774 647.093,367.419 661.334,380.941L615.804,426.687C607.892,418.056 598.254,411.295 586.889,406.404C575.524,401.513 562.29,399.067 547.185,399.067C533.95,399.067 521.83,401.297 510.825,405.756C499.82,410.216 490.326,416.653 482.342,425.069C474.358,433.485 468.172,443.555 463.785,455.279C459.397,467.003 457.203,479.986 457.203,494.228C457.203,508.613 459.397,521.668 463.785,533.392C468.172,545.117 474.358,555.187 482.342,563.602C490.326,572.018 499.82,578.491 510.825,583.023C521.83,587.554 533.95,589.82 547.185,589.82C562.865,589.82 576.46,587.41 587.968,582.591C599.476,577.772 609.331,570.975 617.53,562.2L663.276,607.946C648.747,621.612 632.06,632.293 613.215,639.989C594.37,647.686 572.503,651.534 547.616,651.534C524.887,651.534 503.812,647.578 484.392,639.666C464.971,631.754 447.996,620.641 433.467,606.327C418.938,592.014 407.681,575.29 399.697,556.158C395.85,546.939 392.93,537.369 390.936,527.449L290.827,527.458L290.827,646.787L222.856,646.787L222.856,342.1Z" style="fill-rule:nonzero;"/>
                </g>
            </g>
        </g>
        <g id="Logo---text" serif:id="Logo + text">
        </g>
        <g id="Logo-outline" serif:id="Logo outline">
        </g>
        <g id="Logo---side-text" serif:id="Logo + side text">
        </g>
    </g>
</svg>
